<?xml version="1.0" encoding="UTF-8" standalone="no"?>
<svg version="1.1" width="231.41333" height="110.53333" viewBox="0 0 231.41333 110.53333"
	xmlns="http://www.w3.org/2000/svg" xmlns:svg="http://www.w3.org/2000/svg" fill="#FFFFFF" fill-rule="evenodd"
	stroke="none">
	<g transform="matrix(1.3333333,0,0,-1.3333333,0,110.53333)">
		<g id="g10" transform="scale(0.1)">
			<path
				d="m 80.7227,91.2188 c 0,-14.0782 -11.2422,-24.1016 -29.2383,-24.1016 H 23.8008 v 48.6018 h 27.6836 c 17.8125,0 29.2383,-8.309 29.2383,-24.1018 z M 0,137.316 h 53.4258 c 31.539,0 51.4842,-17.929 51.4842,-45.1285 V 91.8008 C 104.91,61.5273 80.5195,45.6992 50.7109,45.6992 H 23.8008 V 2.30469 L 0,2.30469 Z m 187.941,0 H 164.129 V 2.30469 h 95.047 V 23.9063 H 187.941 Z M 312.629,59.5859 v 77.7301 h 23.809 V 60.5586 c 0,-25.0742 12.976,-38.5742 34.257,-38.5742 21.106,0 34.071,12.7265 34.071,37.6015 v 77.7301 h 23.812 V 60.7539 c 0,-40.3164 -22.844,-60.574212 -58.262,-60.574212 -35.234,0 -57.687,20.257812 -57.687,59.406212 z M 581.84,92.957 c 0,-13.6914 -10.848,-22.5742 -27.883,-22.5742 h -34.836 v 45.3362 h 34.652 c 17.618,0 28.067,-7.91 28.067,-22.3752 z m -86.52,44.359 h 60.395 c 17.035,0 30.387,-5.019 39.101,-13.496 7.149,-7.332 11.219,-17.363 11.219,-29.1247 v -0.3945 c 0,-22.1719 -13.363,-35.4883 -32.316,-40.8828 l 36.57,-51.11331 h -28.051 l -33.3,47.06641 H 519.121 V 2.30469 H 495.32 Z m 233.422,-27.382 23.41,-54.0043 h -46.64 z m -10.652,28.339 h 22.066 L 799.773,2.30859 H 774.605 L 760.863,34.8945 H 696.801 L 682.867,2.30859 h -24.394 z m 163.484,-0.957 H 857.773 V 2.30469 h 95.036 V 23.9063 H 881.574 Z M 1003.34,21.9805 1017.65,38.957 c 12.98,-11.1914 25.96,-17.5468 42.79,-17.5468 14.71,0 24,6.7421 24,16.9687 v 0.375 c 0,9.6563 -5.42,14.8594 -30.58,20.6445 -28.84,6.9414 -45.1,15.4297 -45.1,40.3047 v 0.3949 c 0,23.148 19.36,39.148 46.26,39.148 19.74,0 35.41,-5.976 49.16,-16.976 l -12.77,-17.942 c -12.19,9.078 -24.39,13.887 -36.78,13.887 -13.94,0 -22.06,-7.125 -22.06,-16 v -0.387 c 0,-10.41 6.19,-15.0467 32.12,-21.2147 28.65,-6.9414 43.55,-17.168 43.55,-39.543 v -0.375 c 0,-25.2695 -19.93,-40.316394 -48.38,-40.316394 -20.71,0 -40.26,7.136724 -56.52,21.601594 z m 192.82,115.3515 h -23.8 V 2.32031 h 23.8 z m 429.51,-22 v 21.984 h 109.95 v -21.984 h -42.98 V 2.30469 h -23.99 V 115.332 Z m -148.14,21.984 h -23.81 V 2.30469 h 23.81 V 59.2109 h 64.65 V 2.30469 h 23.81 V 137.316 h -23.81 V 81.1875 h -64.65 z M 1261.26,69.4258 v 0.3867 c 0,37.8045 29.04,69.8165 69.88,69.8165 23.62,0 38.14,-6.559 52.08,-18.328 l -15.11,-17.934 c -10.45,8.875 -20.71,14.477 -37.94,14.477 -24.96,0 -43.94,-21.8049 -43.94,-47.6448 v -0.3867 c 0,-27.7695 18.39,-48.2227 46.07,-48.2227 12.78,0 24.4,4.0469 32.71,10.2266 v 25.2695 h -34.64 v 20.6368 h 57.68 V 21.0117 C 1374.7,9.63672 1355.53,0 1331.53,0 c -42.4,0 -70.27,30.0781 -70.27,69.4258"
				id="path12" />
			<path
				d="M 828.563,621.469 937.34,558.508 828.563,495.543 v -37.629 l 172.347,100.594 -172.347,100.59 z m -26.165,15.144 -61.054,35.34 V 445.059 l 61.054,35.339 V 412.336 L 1052.84,558.508 802.398,704.676 Z m 26.165,-45.39 56.527,-32.715 -56.527,-32.719 z m -26.165,45.39 26.165,-15.144 v -30.246 l -26.165,15.144 z m 0,-30.246 v -95.722 l -34.886,-20.196 v 136.114 z m 0,-95.722 26.165,15.144 v -30.246 l -26.165,-15.145 z m 313.982,47.851 c 0,-134.937 -109.34,-244.336 -244.208,-244.336 -134.871,0 -244.207,109.399 -244.207,244.332 0,134.953 109.34,244.36 244.207,244.36 134.878,0 244.218,-109.407 244.208,-244.356 z m -514.583,-0.004 c 0,-149.383 121.043,-270.512 270.375,-270.512 149.328,0 270.368,121.129 270.368,270.512 0.02,149.41 -121.04,270.539 -270.368,270.539 -149.32,0 -270.375,-121.129 -270.375,-270.539" />
			<path
				d="M 885.09,558.508 767.512,490.449 v 136.114 z m 52.25,0 -195.996,113.445 V 445.059 L 937.34,558.508" />
			<path
				d="M 1000.91,558.508 828.563,457.914 v 201.184 z m 51.93,0 L 802.398,704.68 V 412.336 l 250.442,146.172" />
		</g>
	</g>
</svg>
